<!DOCTYPE svg PUBLIC "-//W3C//DTD SVG 20010904//EN" "http://www.w3.org/TR/2001/REC-SVG-20010904/DTD/svg10.dtd">
<svg version="1.0" xmlns="http://www.w3.org/2000/svg" width="493px" height="449px" viewBox="0 0 4930 4490" preserveAspectRatio="xMidYMid meet">
<g id="layer101" fill="#010101" stroke="none">
<path d="M2175 4174 c-175 -21 -489 -113 -778 -228 -200 -79 -255 -106 -322 -158 -27 -21 -70 -53 -95 -71 -69 -50 -194 -199 -248 -295 -96 -170 -169 -403 -226 -712 -37 -205 -50 -362 -50 -620 -1 -456 71 -795 220 -1027 18 -28 42 -70 53 -92 39 -76 202 -280 241 -302 21 -12 47 -34 59 -50 42 -56 140 -120 244 -159 319 -118 655 -195 962 -221 246 -20 774 6 975 47 179 38 468 153 601 240 36 24 98 80 139 126 41 46 81 90 91 98 9 8 44 46 77 83 94 105 284 482 336 667 26 90 74 344 87 453 18 151 15 511 -4 627 -69 409 -107 556 -185 705 -34 65 -72 110 -318 376 -86 92 -245 209 -374 274 -149 76 -473 195 -530 195 -14 0 -79 9 -145 19 -249 41 -593 51 -810 25z"/>
</g>
<g id="layer102" fill="#5fd1fd" stroke="none">
<path d="M3497 2535 c-23 -17 -35 -70 -26 -110 4 -16 7 -49 8 -72 0 -24 5 -43 10 -43 14 0 92 91 106 124 15 36 10 58 -22 91 -29 28 -49 31 -76 10z"/>
</g>
<g id="layer103" fill="#cfb5ac" stroke="none">
</g>
<g id="layer104" fill="#feded3" stroke="none">
<path d="M2182 4069 c-45 -4 -117 -15 -160 -25 -82 -18 -260 -71 -277 -83 -5 -4 -41 -16 -80 -26 -72 -19 -270 -91 -340 -125 -22 -10 -74 -34 -115 -53 -41 -19 -92 -48 -114 -66 -21 -17 -43 -31 -47 -31 -5 0 -56 -47 -113 -104 -98 -97 -108 -111 -165 -227 -33 -68 -71 -158 -85 -199 -35 -108 -102 -406 -120 -537 -78 -562 -15 -1182 148 -1452 19 -31 50 -88 70 -128 57 -115 91 -161 157 -219 34 -30 66 -54 70 -54 5 0 30 -19 57 -42 148 -130 136 -122 272 -166 52 -17 139 -44 192 -62 171 -55 270 -80 383 -95 61 -9 130 -20 155 -26 25 -5 110 -16 190 -23 307 -27 906 25 1080 94 30 12 82 31 115 42 75 25 225 93 288 131 26 16 117 103 205 198 142 150 165 179 212 271 177 342 199 400 255 668 32 157 44 247 50 380 3 58 7 119 10 135 3 17 1 44 -3 60 -5 17 -5 42 -1 57 13 49 -43 415 -96 624 -43 170 -98 274 -204 387 -43 45 -110 120 -150 167 -40 47 -95 101 -122 120 -27 19 -92 65 -144 103 -88 62 -217 128 -307 157 -21 6 -40 15 -43 20 -3 5 -36 18 -73 30 -37 11 -87 27 -112 36 -46 15 -63 17 -360 53 -175 22 -510 27 -678 10z m1441 -1488 c73 -78 75 -138 5 -238 -57 -82 -114 -135 -141 -131 -61 9 -111 233 -73 332 13 35 26 49 59 65 68 34 97 29 150 -28z m-815 -83 c7 -7 12 -22 12 -35 0 -49 -84 -73 -259 -75 -162 -2 -267 33 -259 86 3 19 9 21 58 18 152 -7 347 -4 370 6 34 14 63 15 78 0z m-1253 -303 c66 -8 152 -24 192 -34 98 -26 237 -85 303 -129 45 -30 56 -43 58 -69 2 -24 -2 -34 -18 -43 -25 -14 -51 -6 -89 26 -71 59 -293 136 -451 156 -188 23 -372 9 -507 -38 -124 -44 -176 -15 -87 49 117 85 336 115 599 82z m2035 -156 c72 -11 143 -29 168 -41 88 -45 222 -174 222 -215 0 -20 -56 -26 -89 -9 -16 9 -33 20 -36 26 -9 15 -104 84 -143 104 -49 25 -268 56 -402 58 -117 1 -139 -4 -280 -58 -50 -19 -100 -14 -100 11 0 33 163 120 265 142 75 15 226 8 395 -18z"/>
</g>


</svg>